<?xml version="1.0" encoding="UTF-8" standalone="no"?>
<!DOCTYPE svg PUBLIC "-//W3C//DTD SVG 1.1//EN"
 "http://www.w3.org/Graphics/SVG/1.1/DTD/svg11.dtd">
<!-- Generated by graphviz version 2.36.0 (20140111.2315)
 -->
<!-- Title: Project_Plan Pages: 1 -->
<svg width="574pt" height="288pt"
 viewBox="0.00 0.00 574.07 288.00" xmlns="http://www.w3.org/2000/svg" xmlns:xlink="http://www.w3.org/1999/xlink">
<g id="graph0" class="graph" transform="scale(0.241004 0.241004) rotate(0) translate(4 1191)">
<title>Project_Plan</title>
<polygon fill="white" stroke="none" points="-4,4 -4,-1191 2378,-1191 2378,4 -4,4"/>
<!-- 1 -->
<g id="node1" class="node"><title>1</title>
<ellipse fill="none" stroke="black" cx="120" cy="-621.557" rx="119.502" ry="119.502"/>
<text text-anchor="start" x="110" y="-630.157" font-family="Times,serif" font-size="38.00">1</text>
<text text-anchor="start" x="43.5" y="-592.157" font-family="Times,serif" font-size="38.00">t</text>
<text text-anchor="start" x="54.5" y="-592.157" font-family="Times,serif" baseline-shift="super" font-size="38.00">&#45;</text>
<text text-anchor="start" x="65.5" y="-592.157" font-family="Times,serif" font-size="38.00">=0; t</text>
<text text-anchor="start" x="137.5" y="-592.157" font-family="Times,serif" baseline-shift="super" font-size="38.00">+</text>
<text text-anchor="start" x="155.5" y="-592.157" font-family="Times,serif" font-size="38.00">=0</text>
</g>
<!-- 2 -->
<g id="node2" class="node"><title>2</title>
<ellipse fill="none" stroke="black" cx="464" cy="-878.557" rx="119.502" ry="119.502"/>
<text text-anchor="start" x="454" y="-887.157" font-family="Times,serif" font-size="38.00">2</text>
<text text-anchor="start" x="387.5" y="-849.157" font-family="Times,serif" font-size="38.00">t</text>
<text text-anchor="start" x="398.5" y="-849.157" font-family="Times,serif" baseline-shift="super" font-size="38.00">&#45;</text>
<text text-anchor="start" x="409.5" y="-849.157" font-family="Times,serif" font-size="38.00">=2; t</text>
<text text-anchor="start" x="481.5" y="-849.157" font-family="Times,serif" baseline-shift="super" font-size="38.00">+</text>
<text text-anchor="start" x="499.5" y="-849.157" font-family="Times,serif" font-size="38.00">=7</text>
</g>
<!-- 1&#45;&gt;2 -->
<g id="edge1" class="edge"><title>1&#45;&gt;2</title>
<path fill="none" stroke="black" d="M216.266,-693.146C260.921,-726.703 314.211,-766.748 359.82,-801.021"/>
<polygon fill="black" stroke="black" points="357.852,-803.92 367.949,-807.13 362.057,-798.324 357.852,-803.92"/>
<text text-anchor="start" x="278" y="-827.157" font-family="Times,serif" font-size="38.00">A</text>
<text text-anchor="start" x="258.5" y="-785.157" font-family="Times,serif" font-size="38.00"> τ=2</text>
</g>
<!-- 3 -->
<g id="node3" class="node"><title>3</title>
<ellipse fill="none" stroke="black" cx="464" cy="-277.557" rx="119.502" ry="119.502"/>
<text text-anchor="start" x="454" y="-286.157" font-family="Times,serif" font-size="38.00">3</text>
<text text-anchor="start" x="387.5" y="-248.157" font-family="Times,serif" font-size="38.00">t</text>
<text text-anchor="start" x="398.5" y="-248.157" font-family="Times,serif" baseline-shift="super" font-size="38.00">&#45;</text>
<text text-anchor="start" x="409.5" y="-248.157" font-family="Times,serif" font-size="38.00">=4; t</text>
<text text-anchor="start" x="481.5" y="-248.157" font-family="Times,serif" baseline-shift="super" font-size="38.00">+</text>
<text text-anchor="start" x="499.5" y="-248.157" font-family="Times,serif" font-size="38.00">=4</text>
</g>
<!-- 1&#45;&gt;3 -->
<g id="edge2" class="edge"><title>1&#45;&gt;3</title>
<path fill="none" stroke="black" stroke-width="6" d="M205.101,-536.965C255.724,-486.045 320.187,-421.205 372,-369.089"/>
<polygon fill="black" stroke="black" stroke-width="6" points="375.897,-372.616 379.225,-361.822 368.451,-365.213 375.897,-372.616"/>
<text text-anchor="start" x="279" y="-534.157" font-family="Times,serif" font-size="38.00">B</text>
<text text-anchor="start" x="258.5" y="-492.157" font-family="Times,serif" font-size="38.00"> τ=4</text>
</g>
<!-- 6 -->
<g id="node6" class="node"><title>6</title>
<ellipse fill="none" stroke="black" cx="1133" cy="-878.557" rx="132.872" ry="132.872"/>
<text text-anchor="start" x="1123" y="-887.157" font-family="Times,serif" font-size="38.00">6</text>
<text text-anchor="start" x="1047" y="-849.157" font-family="Times,serif" font-size="38.00">t</text>
<text text-anchor="start" x="1058" y="-849.157" font-family="Times,serif" baseline-shift="super" font-size="38.00">&#45;</text>
<text text-anchor="start" x="1069" y="-849.157" font-family="Times,serif" font-size="38.00">=9; t</text>
<text text-anchor="start" x="1141" y="-849.157" font-family="Times,serif" baseline-shift="super" font-size="38.00">+</text>
<text text-anchor="start" x="1159" y="-849.157" font-family="Times,serif" font-size="38.00">=14</text>
</g>
<!-- 2&#45;&gt;6 -->
<g id="edge3" class="edge"><title>2&#45;&gt;6</title>
<path fill="none" stroke="black" d="M583.862,-878.557C697.521,-878.557 869.011,-878.557 989.849,-878.557"/>
<polygon fill="black" stroke="black" points="989.917,-882.057 999.917,-878.557 989.917,-875.057 989.917,-882.057"/>
<text text-anchor="start" x="623" y="-932.157" font-family="Times,serif" font-size="38.00">C</text>
<text text-anchor="start" x="602.5" y="-890.157" font-family="Times,serif" font-size="38.00"> τ=7</text>
</g>
<!-- 4 -->
<g id="node4" class="node"><title>4</title>
<ellipse fill="none" stroke="black" cx="835" cy="-422.557" rx="146.242" ry="146.242"/>
<text text-anchor="start" x="825" y="-431.157" font-family="Times,serif" font-size="38.00">4</text>
<text text-anchor="start" x="739.5" y="-393.157" font-family="Times,serif" font-size="38.00">t</text>
<text text-anchor="start" x="750.5" y="-393.157" font-family="Times,serif" baseline-shift="super" font-size="38.00">&#45;</text>
<text text-anchor="start" x="761.5" y="-393.157" font-family="Times,serif" font-size="38.00">=10; t</text>
<text text-anchor="start" x="852.5" y="-393.157" font-family="Times,serif" baseline-shift="super" font-size="38.00">+</text>
<text text-anchor="start" x="870.5" y="-393.157" font-family="Times,serif" font-size="38.00">=14</text>
</g>
<!-- 3&#45;&gt;4 -->
<g id="edge4" class="edge"><title>3&#45;&gt;4</title>
<path fill="none" stroke="black" d="M575.712,-321.062C611.33,-335.058 651.341,-350.78 689.04,-365.594"/>
<polygon fill="black" stroke="black" points="687.983,-368.94 698.571,-369.34 690.544,-362.425 687.983,-368.94"/>
<text text-anchor="start" x="622" y="-408.157" font-family="Times,serif" font-size="38.00">D</text>
<text text-anchor="start" x="602.5" y="-366.157" font-family="Times,serif" font-size="38.00"> τ=6</text>
</g>
<!-- 5 -->
<g id="node5" class="node"><title>5</title>
<ellipse fill="none" stroke="black" cx="1431" cy="-359.557" rx="146.242" ry="146.242"/>
<text text-anchor="start" x="1421" y="-368.157" font-family="Times,serif" font-size="38.00">5</text>
<text text-anchor="start" x="1335.5" y="-330.157" font-family="Times,serif" font-size="38.00">t</text>
<text text-anchor="start" x="1346.5" y="-330.157" font-family="Times,serif" baseline-shift="super" font-size="38.00">&#45;</text>
<text text-anchor="start" x="1357.5" y="-330.157" font-family="Times,serif" font-size="38.00">=14; t</text>
<text text-anchor="start" x="1448.5" y="-330.157" font-family="Times,serif" baseline-shift="super" font-size="38.00">+</text>
<text text-anchor="start" x="1466.5" y="-330.157" font-family="Times,serif" font-size="38.00">=14</text>
</g>
<!-- 3&#45;&gt;5 -->
<g id="edge5" class="edge"><title>3&#45;&gt;5</title>
<path fill="none" stroke="black" stroke-width="6" d="M570.549,-222.913C606.793,-206.924 648.26,-191.59 688,-183.557 816.076,-157.667 853.615,-159.243 982,-183.557 1089.54,-203.923 1204.31,-249.52 1290.76,-289.199"/>
<polygon fill="black" stroke="black" stroke-width="6" points="1288.82,-294.084 1300.1,-293.512 1293.22,-284.552 1288.82,-294.084"/>
<text text-anchor="start" x="823" y="-237.157" font-family="Times,serif" font-size="38.00">E</text>
<text text-anchor="start" x="792" y="-195.157" font-family="Times,serif" font-size="38.00"> τ=10</text>
</g>
<!-- 4&#45;&gt;5 -->
<g id="edge6" class="edge"><title>4&#45;&gt;5</title>
<path fill="none" stroke="black" stroke-dasharray="5,2" d="M980.929,-407.186C1070.06,-397.733 1184.21,-385.626 1275.12,-375.984"/>
<polygon fill="black" stroke="black" points="1275.67,-379.446 1285.24,-374.91 1274.93,-372.485 1275.67,-379.446"/>
<text text-anchor="start" x="1109" y="-458.157" font-family="Times,serif" font-size="38.00">Ф1</text>
<text text-anchor="start" x="1099.5" y="-416.157" font-family="Times,serif" font-size="38.00"> τ=0</text>
</g>
<!-- 7 -->
<g id="node7" class="node"><title>7</title>
<ellipse fill="none" stroke="black" cx="1829" cy="-656.557" rx="146.242" ry="146.242"/>
<text text-anchor="start" x="1819" y="-665.157" font-family="Times,serif" font-size="38.00">7</text>
<text text-anchor="start" x="1733.5" y="-627.157" font-family="Times,serif" font-size="38.00">t</text>
<text text-anchor="start" x="1744.5" y="-627.157" font-family="Times,serif" baseline-shift="super" font-size="38.00">&#45;</text>
<text text-anchor="start" x="1755.5" y="-627.157" font-family="Times,serif" font-size="38.00">=19; t</text>
<text text-anchor="start" x="1846.5" y="-627.157" font-family="Times,serif" baseline-shift="super" font-size="38.00">+</text>
<text text-anchor="start" x="1864.5" y="-627.157" font-family="Times,serif" font-size="38.00">=19</text>
</g>
<!-- 5&#45;&gt;7 -->
<g id="edge8" class="edge"><title>5&#45;&gt;7</title>
<path fill="none" stroke="black" stroke-width="6" d="M1548.4,-446.86C1597.04,-483.335 1653.63,-525.781 1703.13,-562.905"/>
<polygon fill="black" stroke="black" stroke-width="6" points="1700.18,-567.254 1711.33,-569.054 1706.48,-558.854 1700.18,-567.254"/>
<text text-anchor="start" x="1616" y="-580.157" font-family="Times,serif" font-size="38.00">G</text>
<text text-anchor="start" x="1596.5" y="-538.157" font-family="Times,serif" font-size="38.00"> τ=5</text>
</g>
<!-- 6&#45;&gt;7 -->
<g id="edge7" class="edge"><title>6&#45;&gt;7</title>
<path fill="none" stroke="black" d="M1259.68,-838.355C1377.79,-800.573 1554.61,-744.011 1679.6,-704.027"/>
<polygon fill="black" stroke="black" points="1680.81,-707.317 1689.26,-700.937 1678.67,-700.65 1680.81,-707.317"/>
<text text-anchor="start" x="1420" y="-880.157" font-family="Times,serif" font-size="38.00">F</text>
<text text-anchor="start" x="1397.5" y="-838.157" font-family="Times,serif" font-size="38.00"> τ=5</text>
</g>
<!-- 8 -->
<g id="node8" class="node"><title>8</title>
<ellipse fill="none" stroke="black" cx="2227" cy="-656.557" rx="146.242" ry="146.242"/>
<text text-anchor="start" x="2217" y="-665.157" font-family="Times,serif" font-size="38.00">8</text>
<text text-anchor="start" x="2131.5" y="-627.157" font-family="Times,serif" font-size="38.00">t</text>
<text text-anchor="start" x="2142.5" y="-627.157" font-family="Times,serif" baseline-shift="super" font-size="38.00">&#45;</text>
<text text-anchor="start" x="2153.5" y="-627.157" font-family="Times,serif" font-size="38.00">=23; t</text>
<text text-anchor="start" x="2244.5" y="-627.157" font-family="Times,serif" baseline-shift="super" font-size="38.00">+</text>
<text text-anchor="start" x="2262.5" y="-627.157" font-family="Times,serif" font-size="38.00">=23</text>
</g>
<!-- 7&#45;&gt;8 -->
<g id="edge9" class="edge"><title>7&#45;&gt;8</title>
<path fill="none" stroke="black" stroke-width="6" d="M1975.49,-656.557C2006.35,-656.557 2039.04,-656.557 2070.26,-656.557"/>
<polygon fill="black" stroke="black" stroke-width="6" points="2070.34,-661.807 2080.34,-656.557 2070.34,-651.307 2070.34,-661.807"/>
<text text-anchor="start" x="2014" y="-710.157" font-family="Times,serif" font-size="38.00">H</text>
<text text-anchor="start" x="1994.5" y="-668.157" font-family="Times,serif" font-size="38.00"> τ=4</text>
</g>
</g>
</svg>
